<?xml version="1.0" encoding="UTF-8" standalone="no"?>
<svg
   xmlns:dc="http://purl.org/dc/elements/1.1/"
   xmlns:cc="http://creativecommons.org/ns#"
   xmlns:rdf="http://www.w3.org/1999/02/22-rdf-syntax-ns#"
   xmlns:svg="http://www.w3.org/2000/svg"
   xmlns="http://www.w3.org/2000/svg"
   xmlns:sodipodi="http://sodipodi.sourceforge.net/DTD/sodipodi-0.dtd"
   xmlns:inkscape="http://www.inkscape.org/namespaces/inkscape"
   version="1.1"
   x="0px"
   y="0px"
   viewBox="0 0 100 125"
   enable-background="new 0 0 100 100"
   xml:space="preserve"
   id="svg2"
   inkscape:version="0.91 r13725"
   sodipodi:docname="Q11633_noun_186116_ccAntonGajdosik_photography.svg"><metadata
     id="metadata18"><rdf:RDF><cc:Work
         rdf:about=""><dc:format>image/svg+xml</dc:format><dc:type
           rdf:resource="http://purl.org/dc/dcmitype/StillImage" /><dc:title></dc:title></cc:Work></rdf:RDF></metadata><defs
     id="defs16" /><sodipodi:namedview
     pagecolor="#ffffff"
     bordercolor="#666666"
     borderopacity="1"
     objecttolerance="10"
     gridtolerance="10"
     guidetolerance="10"
     inkscape:pageopacity="0"
     inkscape:pageshadow="2"
     inkscape:window-width="1680"
     inkscape:window-height="988"
     id="namedview14"
     showgrid="false"
     inkscape:zoom="1.888"
     inkscape:cx="50"
     inkscape:cy="62.5"
     inkscape:window-x="1272"
     inkscape:window-y="-8"
     inkscape:window-maximized="1"
     inkscape:current-layer="svg2" /><g
     id="g4"
     transform="translate(0,14)"><circle
       cx="50"
       cy="58.438"
       r="20.427999"
       id="circle6" /><path
       d="m 89.375,21.953 -22.5,0 0,-6.952 c 0,-2.332 -1.889,-4.298 -4.218,-4.298 l -25.313,0 c -2.331,0 -4.219,1.966 -4.219,4.298 l 0,6.952 -5.625,0 c 0,-2.812 -1.888,-4.219 -4.219,-4.219 l -5.625,0 c -2.331,0 -4.219,1.406 -4.219,4.219 l -2.812,0 C 7.519,21.953 5,24.707 5,27.813 l 0,6.875 0,38.125 0,6.876 c 0,3.106 2.519,5.545 5.625,5.545 l 24.057,0 c 4.518,2.813 9.744,4.063 15.318,4.063 5.574,0 10.8,-1.25 15.317,-4.062 l 24.058,0 C 92.481,85.235 95,82.797 95,79.69 l 0,-6.876 0,-38.126 0,-6.875 c 0,-3.106 -2.519,-5.86 -5.625,-5.86 z m -29.53,-1.406 c 0,2.331 -1.89,4.219 -4.22,4.219 l -11.25,0 c -2.331,0 -4.219,-1.888 -4.219,-4.219 l 0,-1.406 c 0,-2.33 1.888,-4.219 4.219,-4.219 l 11.25,0 c 2.33,0 4.22,1.889 4.22,4.219 l 0,1.406 z M 50,84.49 C 35.613,84.49 23.948,72.825 23.948,58.438 23.948,44.05 35.613,32.384 50,32.384 c 14.387,0 26.051,11.665 26.051,26.052 C 76.051,72.824 64.387,84.49 50,84.49 Z M 82.344,41.72 c -3.105,0 -5.625,-2.519 -5.625,-5.625 0,-3.106 2.52,-5.625 5.625,-5.625 3.106,0 5.625,2.519 5.625,5.625 0,3.106 -2.519,5.625 -5.625,5.625 z"
       id="path8"
       inkscape:connector-curvature="0" /></g></svg>